<svg id="Capa_1" enable-background="new 0 0 510.001 510.001" height="512" viewBox="0 0 510.001 510.001" width="512" xmlns="http://www.w3.org/2000/svg" xmlns:xlink="http://www.w3.org/1999/xlink"><linearGradient id="lg1"><stop offset="0" stop-color="#ebeff0"/><stop offset="1" stop-color="#e3e5e4"/></linearGradient><linearGradient id="SVGID_1_" gradientUnits="userSpaceOnUse" x1="255.52" x2="255.52" xlink:href="#lg1" y1="36.341" y2="71.784"/><linearGradient id="lg2"><stop offset="0" stop-color="#cbd0e4" stop-opacity="0"/><stop offset=".001" stop-color="#cbd0e4" stop-opacity=".001"/><stop offset=".1951" stop-color="#a8b2c1" stop-opacity=".195"/><stop offset=".3909" stop-color="#8d9ba6" stop-opacity=".391"/><stop offset=".5897" stop-color="#798a92" stop-opacity=".59"/><stop offset=".7913" stop-color="#6e8087" stop-opacity=".791"/><stop offset="1" stop-color="#6a7d83"/></linearGradient><linearGradient id="SVGID_2_" gradientUnits="userSpaceOnUse" x1="255.52" x2="255.52" xlink:href="#lg2" y1="65.912" y2="95.625"/><linearGradient id="SVGID_3_" gradientUnits="userSpaceOnUse" x1="255" x2="255" y1="93.748" y2="493.925"><stop offset="0" stop-color="#7faef4"/><stop offset="1" stop-color="#4c8df1"/></linearGradient><linearGradient id="SVGID_4_" gradientUnits="userSpaceOnUse" x1="255" x2="255" y1="-56" y2="348.495"><stop offset="0" stop-color="#4c8df1" stop-opacity="0"/><stop offset=".1116" stop-color="#4b86e8" stop-opacity=".112"/><stop offset=".7004" stop-color="#4463bd" stop-opacity=".7"/><stop offset="1" stop-color="#4256ac"/></linearGradient><linearGradient id="lg3"><stop offset="0" stop-color="#4c8df1" stop-opacity="0"/><stop offset="1" stop-color="#4256ac"/></linearGradient><linearGradient id="SVGID_5_" gradientUnits="userSpaceOnUse" x1="255.522" x2="255.522" xlink:href="#lg3" y1="424.37" y2="182.129"/><linearGradient id="SVGID_6_" gradientUnits="userSpaceOnUse" x1="255.522" x2="255.522" xlink:href="#lg3" y1="444.968" y2="489.468"/><linearGradient id="lg4"><stop offset="0" stop-color="#e3e5e4"/><stop offset="1" stop-color="#cbd0e4"/></linearGradient><linearGradient id="SVGID_7_" gradientUnits="userSpaceOnUse" x1="399.835" x2="357.126" xlink:href="#lg4" y1="72.41" y2="29.701"/><linearGradient id="SVGID_8_" gradientUnits="userSpaceOnUse" x1="152.501" x2="113.92" xlink:href="#lg4" y1="67.745" y2="29.164"/><linearGradient id="SVGID_9_" gradientUnits="userSpaceOnUse" x1="155.794" x2="212.791" xlink:href="#lg1" y1="216.31" y2="348.304"/><linearGradient id="SVGID_10_" gradientUnits="userSpaceOnUse" x1="274.866" x2="331.863" xlink:href="#lg1" y1="164.893" y2="296.886"/><linearGradient id="SVGID_11_" gradientUnits="userSpaceOnUse" x1="191.264" x2="191.264" xlink:href="#lg2" y1="206.245" y2="340.971"/><linearGradient id="SVGID_12_" gradientUnits="userSpaceOnUse" x1="315.289" x2="315.289" xlink:href="#lg2" y1="206.245" y2="340.971"/><g><path d="m449.66 13.665h-388.27c-18.29 0-33.25 14.96-33.25 33.25v416.17c0 18.29 14.96 33.25 33.25 33.25h388.27c18.28 0 33.24-14.96 33.24-33.25v-416.17c0-18.29-14.96-33.25-33.24-33.25zm-73.33 49.58c-7.91 0-14.33-6.42-14.33-14.33 0-7.92 6.42-14.34 14.33-14.34 7.92 0 14.34 6.42 14.34 14.34 0 7.91-6.42 14.33-14.34 14.33zm-242.66 0c-7.92 0-14.34-6.42-14.34-14.33 0-7.92 6.42-14.34 14.34-14.34 7.91 0 14.33 6.42 14.33 14.34 0 7.91-6.42 14.33-14.33 14.33z" fill="url(#SVGID_1_)"/><path d="m28.14 48.91v111.835h454.76v-111.835h-92.23v.005c0 7.91-6.42 14.33-14.34 14.33-7.91 0-14.33-6.42-14.33-14.33 0-.002 0-.003 0-.005h-214v.005c0 7.91-6.42 14.33-14.33 14.33-7.92 0-14.34-6.42-14.34-14.33 0-.002 0-.003 0-.005z" fill="url(#SVGID_2_)"/><path d="m.47 114.763 27.67 177.35h.002v170.977c0 18.285 14.96 33.245 33.245 33.245h388.271c18.285 0 33.245-14.96 33.245-33.245v-170.977h.002l26.627-177.35c3.098-16.451-9.52-31.667-26.26-31.667h-456.542c-16.74 0-29.358 15.216-26.26 31.667z" fill="url(#SVGID_3_)"/><path d="m483.27 83.095h-456.54c-16.74 0-29.36 15.22-26.26 31.67l27.67 177.35h454.76l26.63-177.35c3.1-16.45-9.52-31.67-26.26-31.67z" fill="url(#SVGID_4_)"/><path d="m61.386 496.334h388.271c18.285 0 33.245-14.96 33.245-33.245v-170.976h-454.76v170.977c0 18.284 14.96 33.244 33.244 33.244z" fill="url(#SVGID_5_)"/><path d="m28.142 423.022v40.068c0 18.285 14.96 33.245 33.245 33.245h388.271c18.285 0 33.245-14.96 33.245-33.245v-40.068z" fill="url(#SVGID_6_)"/><g><path d="m376.33 19.935c-16 0-28.97 12.97-28.97 28.97 0 16.01 12.97 28.98 28.97 28.98 16.01 0 28.98-12.97 28.98-28.98 0-16-12.97-28.97-28.98-28.97zm0 43.31c-7.91 0-14.33-6.42-14.33-14.34 0-7.91 6.42-14.33 14.33-14.33 7.92 0 14.34 6.42 14.34 14.33 0 7.92-6.42 14.34-14.34 14.34z" fill="url(#SVGID_7_)"/><path d="m133.67 19.935c-16.01 0-28.98 12.97-28.98 28.97 0 16.01 12.97 28.98 28.98 28.98 16 0 28.97-12.97 28.97-28.98 0-16-12.97-28.97-28.97-28.97zm0 43.31c-7.92 0-14.34-6.42-14.34-14.34 0-7.91 6.42-14.33 14.34-14.33 7.91 0 14.33 6.42 14.33 14.33 0 7.92-6.42 14.34-14.33 14.34z" fill="url(#SVGID_8_)"/></g><g><path d="m220.201 339.701v-5.819c0-20.517-12.556-24.498-29.398-24.498-10.413 0-13.78-9.187-13.78-18.373 0-9.187 3.368-18.374 13.78-18.374 11.636 0 23.885-1.531 23.885-26.335 0-17.761-10.106-22.048-22.661-22.048-15.004 0-22.661 3.675-22.661 15.618 0 10.412-4.593 17.455-22.354 17.455-22.048 0-24.804-4.594-24.804-19.293 0-23.886 17.148-54.815 69.819-54.815 38.892 0 68.29 14.086 68.29 55.427 0 22.354-8.269 43.178-23.58 50.221 18.067 6.738 31.235 20.211 31.235 45.015v5.819c0 50.221-34.604 69.207-77.476 69.207-52.671 0-72.883-32.154-72.883-57.877 0-13.78 5.818-17.455 22.661-17.455 19.599 0 24.498 4.287 24.498 15.924 0 14.392 13.474 17.761 27.254 17.761 20.825-.001 28.175-7.656 28.175-27.56z" fill="url(#SVGID_9_)"/><path d="m307.173 236.501-8.881 5.512c-2.756 1.837-5.512 2.45-7.655 2.45-8.881 0-15.006-9.493-15.006-18.986 0-6.431 2.757-12.556 8.881-16.23l40.422-24.498c2.451-1.531 5.512-2.144 8.881-2.144 9.799 0 21.129 5.818 21.129 15.006v194.76c0 9.799-11.942 14.699-23.885 14.699s-23.886-4.9-23.886-14.699z" fill="url(#SVGID_10_)"/></g><g><path d="m260.319 238.645c0-41.34-29.4-55.43-68.29-55.43-52.67 0-69.82 30.93-69.82 54.82 0 14.7 2.75 19.29 24.8 19.29 17.76 0 22.36-7.04 22.36-17.46 0-11.94 7.65-15.61 22.66-15.61 12.55 0 22.66 4.28 22.66 22.05 0 24.8-12.25 26.33-23.89 26.33-10.41 0-13.78 9.19-13.78 18.37 0 .37.01.74.02 1.11h66.99c-2.32-1.23-4.76-2.3-7.29-3.25 15.31-7.04 23.58-27.87 23.58-50.22z" fill="url(#SVGID_11_)"/><path d="m333.819 182.605c-3.37 0-6.43.61-8.88 2.14l-40.43 24.5c-6.12 3.68-8.88 9.8-8.88 16.23 0 9.49 6.13 18.99 15.01 18.99 2.14 0 4.9-.61 7.65-2.45l8.88-5.51v55.61h47.78v-94.5c0-9.19-11.33-15.01-21.13-15.01z" fill="url(#SVGID_12_)"/></g></g></svg>