<svg id="Capa_1" enable-background="new 0 0 510 510" height="512" viewBox="0 0 510 510" width="512" xmlns="http://www.w3.org/2000/svg" xmlns:xlink="http://www.w3.org/1999/xlink"><linearGradient id="SVGID_1_" gradientUnits="userSpaceOnUse" x1="218.973" x2="380.27" y1="158.336" y2="504.608"><stop offset="0" stop-color="#e3e5e4"/><stop offset="1" stop-color="#cbd0e4"/></linearGradient><linearGradient id="lg1"><stop offset="0" stop-color="#ebeff0"/><stop offset="1" stop-color="#e3e5e4"/></linearGradient><linearGradient id="SVGID_2_" gradientUnits="userSpaceOnUse" x1="207.043" x2="290.353" xlink:href="#lg1" y1="381.647" y2="464.957"/><linearGradient id="lg2"><stop offset="0" stop-color="#cbd0e4" stop-opacity="0"/><stop offset="1" stop-color="#6a7d83"/></linearGradient><linearGradient id="SVGID_3_" gradientUnits="userSpaceOnUse" x1="255" x2="255" xlink:href="#lg2" y1="395.097" y2="480.645"/><linearGradient id="lg3"><stop offset="0" stop-color="#ff637b"/><stop offset="1" stop-color="#f90217"/></linearGradient><linearGradient id="SVGID_4_" gradientUnits="userSpaceOnUse" x1="17.333" x2="58.022" xlink:href="#lg3" y1="255" y2="255"/><linearGradient id="SVGID_5_" gradientUnits="userSpaceOnUse" x1="419.959" x2="357.292" xlink:href="#lg2" y1="254.052" y2="188.052"/><linearGradient id="SVGID_6_" gradientUnits="userSpaceOnUse" x1="483.333" x2="514.667" xlink:href="#lg3" y1="255" y2="255"/><linearGradient id="lg4"><stop offset="0" stop-color="#f90217" stop-opacity="0"/><stop offset=".2669" stop-color="#e7010f" stop-opacity=".267"/><stop offset=".7232" stop-color="#ce0004" stop-opacity=".723"/><stop offset="1" stop-color="#c50000"/></linearGradient><linearGradient id="SVGID_7_" gradientUnits="userSpaceOnUse" x1="500.767" x2="458.767" xlink:href="#lg4" y1="169.548" y2="122.048"/><linearGradient id="SVGID_8_" gradientTransform="matrix(-1 0 0 1 971.233 0)" gradientUnits="userSpaceOnUse" x1="962" x2="920" xlink:href="#lg4" y1="169.548" y2="122.048"/><linearGradient id="SVGID_9_" gradientUnits="userSpaceOnUse" x1="234.406" x2="346.189" xlink:href="#lg1" y1="54.061" y2="189.691"/><linearGradient id="SVGID_10_" gradientUnits="userSpaceOnUse" x1="261.026" x2="390.36" xlink:href="#lg3" y1="90.574" y2="308.574"/><g><path d="m462.393 459.282h-414.786c-16.351 0-29.607-13.256-29.607-29.608l-18-349.349c0-16.352 13.256-29.607 29.607-29.607h450.785c16.352 0 29.607 13.256 29.607 29.607l-18 349.349c.001 16.352-13.255 29.608-29.606 29.608z" fill="url(#SVGID_1_)"/><path d="m480.393 459.282h-450.786c-16.351 0-29.607-13.256-29.607-29.608 0-8.258 3.41-16.149 9.423-21.808l222.585-209.465c12.918-12.156 33.066-12.156 45.984 0l222.585 209.465c6.014 5.659 9.423 13.55 9.423 21.808 0 16.352-13.256 29.608-29.607 29.608z" fill="url(#SVGID_2_)"/><path d="m4.235 352.963v76.711c0 16.352 13.036 29.607 29.116 29.607h443.298c16.08 0 29.116-13.256 29.116-29.607v-76.711z" fill="url(#SVGID_3_)"/><path d="m0 80.326v349.349c0 16.352 13.256 29.607 29.607 29.607h19.16v-408.564h-19.16c-16.351 0-29.607 13.256-29.607 29.608z" fill="url(#SVGID_4_)"/><path d="m10.423 102.133 381.577 357.149h88.393c16.352 0 29.607-13.256 29.607-29.607v-349.349c0-16.352-13.256-27.607-29.607-27.607h-450.786c-16.351-.001-28.607 11.255-28.607 27.607 0 8.257 3.41 16.148 9.423 21.807z" fill="url(#SVGID_5_)"/><path d="m510 80.326v349.349c0 16.352-13.256 29.607-29.607 29.607h-19.16v-408.564h19.16c16.351 0 29.607 13.256 29.607 29.608z" fill="url(#SVGID_6_)"/><path d="m480.393 52.718h-19.16v180.996h48.767v-151.388c0-16.352-13.256-29.608-29.607-29.608z" fill="url(#SVGID_7_)"/><path d="m29.607 52.718h19.16v180.996h-48.767v-151.388c0-16.352 13.256-29.608 29.607-29.608z" fill="url(#SVGID_8_)"/><path d="m480.393 50.718h-450.786c-16.351 0-29.607 13.256-29.607 29.608 0 8.258 3.41 13.149 9.423 18.808l222.585 209.465c12.918 12.156 33.066 12.156 45.984 0l222.585-209.466c6.013-5.659 9.423-10.55 9.423-18.807 0-16.352-13.256-29.608-29.607-29.608z" fill="url(#SVGID_9_)"/><path d="m479.775 50.718c-1.179 0-2.313.45-3.171 1.257l-198.612 186.906c-12.918 12.156-33.066 12.156-45.984 0l-198.611-186.905c-.858-.808-1.993-1.258-3.171-1.258-15.107 0-28.248 11.079-30.018 26.082-1.121 9.503 2.351 18.873 9.216 25.333l222.585 209.465c12.918 12.156 33.066 12.156 45.984 0l222.585-209.465c6.865-6.461 10.337-15.83 9.216-25.333-1.771-15.003-14.912-26.082-30.019-26.082z" fill="url(#SVGID_10_)"/></g></svg>